# xmcd CD database file
#
# Track frame offsets:
#	150
#	11767
#	33052
#	55092
#	74702
#	94947
#	117895
#	134897
#	148420
#	164912
#	183750
#	207790
#	220357
#
# Disc length: 3248 seconds
#
# Revision: 0
# Processed by: cddbd v1.5.2PL0 Copyright (c) Steve Scherf et al.
# Submitted via: CDex 1.70beta2
#
DISCID=cf0cae0d
DTITLE=Jack Maheu - In New Orleans
DYEAR=1996
DGENRE=Jazz
TTITLE0=Runnin' Wild
TTITLE1=Bourbon Moon
TTITLE2=Cakewalkin' Babies From Home
TTITLE3=Just a Closer Walk With Thee
TTITLE4=Clarinet Marmalade
TTITLE5=Birth of the Blues
TTITLE6=There's Something in the Water
TTITLE7=When You're Smiling
TTITLE8=Emaline
TTITLE9=Do You Ever Think Of Me
TTITLE10=Sweet and Lovely
TTITLE11=Russian Lullabye
TTITLE12=Choppin' Sticks
EXTD=YEAR: 1996
EXTT0=
EXTT1=
EXTT2=
EXTT3=
EXTT4=
EXTT5=
EXTT6=
EXTT7=
EXTT8=
EXTT9=
EXTT10=
EXTT11=
EXTT12=
PLAYORDER=
